<svg xmlns="http://www.w3.org/2000/svg" width="512" height="512" viewBox="0 0 32 32" fill="none">
  <defs>
    <radialGradient id="bg" cx="50%" cy="45%" r="50%">
      <stop offset="0%" stop-color="#1a1530" />
      <stop offset="100%" stop-color="#0a0a14" />
    </radialGradient>
  </defs>

  <!-- Background circle -->
  <circle cx="16" cy="16" r="15" fill="url(#bg)" />
  <circle cx="16" cy="16" r="15" fill="none" stroke="#2a2450" stroke-width="0.5" />

  <!-- Filled shape (glow behind) -->
  <path d="M16 4C16 4 8 8 8 16C8 20 10 24 16 28C22 24 24 20 24 16C24 8 16 4 16 4Z" fill="#5b9cf5" opacity="0.2"/>

  <!-- Left stroke (blue) -->
  <path d="M16 6L12 12L8 16C8 20 10 24 16 28" stroke="#5b9cf5" stroke-width="1.5" stroke-linecap="round" fill="none"/>

  <!-- Right stroke (purple) -->
  <path d="M16 6L20 12L24 16C24 20 22 24 16 28" stroke="#c084fc" stroke-width="1.5" stroke-linecap="round" fill="none"/>

  <!-- Center dot -->
  <circle cx="16" cy="14" r="2" fill="#5b9cf5"/>
</svg>
